<svg width="37" height="37" viewBox="0 0 37 37" fill="none" xmlns="http://www.w3.org/2000/svg">
<g clip-path="url(#clip0_309_103)">
<path fill-rule="evenodd" clip-rule="evenodd" d="M18.5004 37C14.8413 37.0001 11.2644 35.9151 8.22194 33.8823C5.1795 31.8495 2.80819 28.9602 1.40788 25.5797C0.00756484 22.1992 -0.358849 18.4793 0.354971 14.8906C1.06879 11.3018 2.83078 8.00535 5.41813 5.418C8.00547 2.83066 11.302 1.06867 14.8907 0.354849C18.4795 -0.358971 22.1993 0.00744277 25.5798 1.40775C28.9603 2.80806 31.8497 5.17938 33.8825 8.22182C35.9152 11.2643 37.0002 14.8412 37.0001 18.5002C37.0002 20.9297 36.5217 23.3353 35.592 25.5799C34.6623 27.8244 33.2997 29.8638 31.5818 31.5817C29.8639 33.2995 27.8245 34.6622 25.58 35.5919C23.3355 36.5216 20.9298 37 18.5004 37ZM26.8105 16.2109C27.1735 13.7874 25.3271 12.4844 22.8038 11.6145L23.6247 8.32993L21.6249 7.83344L20.8289 11.033C20.3037 10.9012 19.7653 10.7787 19.2291 10.6563L20.0328 7.43846L18.0348 6.94197L17.2117 10.2199C16.777 10.1206 16.3489 10.0235 15.9352 9.91925V9.90876L13.1769 9.22085L12.6451 11.3552C12.6451 11.3552 14.1285 11.695 14.0976 11.716C14.3742 11.7494 14.6266 11.89 14.8007 12.1075C14.9747 12.3251 15.0564 12.6023 15.0282 12.8794L14.0965 16.6196C14.1671 16.6372 14.2366 16.6592 14.3045 16.6853L14.0926 16.6334L12.7863 21.8741C12.7573 21.9655 12.7106 22.0503 12.6488 22.1236C12.5871 22.1969 12.5114 22.2573 12.4262 22.3014C12.3411 22.3454 12.248 22.3722 12.1525 22.3802C12.057 22.3882 11.9608 22.3772 11.8695 22.348C11.8904 22.3767 10.417 21.9861 10.417 21.9861L9.43336 24.2727L12.035 24.9215C12.5182 25.0428 12.9921 25.1703 13.4582 25.2894L12.6307 28.6104L14.6277 29.1069L15.4464 25.824C15.992 25.9707 16.5216 26.1075 17.0396 26.2366L16.2231 29.5063L18.2212 30.0028L19.0487 26.689C22.4574 27.3344 25.0198 27.0751 26.0983 23.9914C26.9677 21.509 26.0553 20.0774 24.2624 19.1446C25.5687 18.8439 26.5517 17.9861 26.8143 16.2098L26.8105 16.2109ZM22.2455 22.6139C21.6293 25.0964 17.4494 23.7542 16.094 23.4177L17.1924 19.0182C18.5478 19.3569 22.8937 20.025 22.2455 22.6139ZM22.8639 16.175C22.3007 18.4329 18.8231 17.2849 17.6955 17.0025L18.6885 13.0135C19.816 13.2943 23.4498 13.8183 22.8623 16.1734L22.8639 16.175Z" fill="#564CEA"/>
</g>
<defs>
<clipPath id="clip0_309_103">
<rect width="37" height="37" fill="white"/>
</clipPath>
</defs>
</svg>
