<svg width="16" height="16" viewBox="0 0 16 16" fill="none" xmlns="http://www.w3.org/2000/svg">
<path fill-rule="evenodd" clip-rule="evenodd" d="M5.9314 0.000193393H10.666V0C10.824 9.76908e-06 10.978 0.052619 11.1063 0.150418C11.2346 0.248217 11.3308 0.386276 11.3813 0.545151L13.6868 7.79475H8.41025L5.9314 0.000193393ZM8.87505 9.25625L10.8464 15.4549C10.8969 15.6137 10.993 15.7517 11.1213 15.8494C11.2496 15.9472 11.4036 15.9998 11.5615 15.9998H15.2462C15.3658 15.9998 15.4838 15.9696 15.5903 15.9117C15.6967 15.8537 15.7887 15.7697 15.8585 15.6665C15.9283 15.5634 15.9739 15.444 15.9917 15.3185C16.0094 15.1929 15.9987 15.0646 15.9604 14.9443L14.1516 9.25625H8.87505Z" fill="url(#paint0_linear_381_53)"/>
<path d="M3.78607 10.3662H11.294C11.3638 10.3661 11.432 10.3884 11.4897 10.43C11.5474 10.4716 11.592 10.5308 11.6176 10.5997C11.6432 10.6686 11.6487 10.7441 11.6333 10.8163C11.6179 10.8886 11.5823 10.9543 11.5313 11.0048L6.70686 15.7836C6.5664 15.9226 6.38145 15.9999 6.18936 15.9999H1.9381L3.78607 10.3662Z" fill="#352CA9"/>
<path fill-rule="evenodd" clip-rule="evenodd" d="M4.89349 0.150354C4.76536 0.247981 4.66931 0.385812 4.61889 0.54443L2.3132 7.79473H7.58983L9.89552 0.54443C9.94597 0.385828 10.042 0.248013 10.1701 0.15039C10.2983 0.052767 10.452 0.000253691 10.6098 0.000244146H5.33313C5.1754 0.000224699 5.02163 0.0527267 4.89349 0.150354ZM7.12505 9.25623H1.84842L0.0395972 14.9441C0.00132138 15.0645 -0.00940938 15.1927 0.00829322 15.3183C0.0259958 15.444 0.0716227 15.5633 0.1414 15.6665C0.211178 15.7697 0.303101 15.8537 0.409567 15.9117C0.516032 15.9698 0.633981 16 0.753658 16.0001H6.03047C5.91077 16.0001 5.7928 15.9698 5.68631 15.9118C5.57983 15.8538 5.48788 15.7697 5.41808 15.6666C5.34828 15.5634 5.30264 15.444 5.28493 15.3184C5.26722 15.1928 5.27794 15.0645 5.31622 14.9441L7.12505 9.25623Z" fill="url(#paint1_linear_381_53)"/>
<defs>
<linearGradient id="paint0_linear_381_53" x1="7.74992" y1="-0.5" x2="14.0647" y2="18.9656" gradientUnits="userSpaceOnUse">
<stop offset="0.0001" stop-color="#2C23B9"/>
<stop offset="0.995826" stop-color="#3F37C2"/>
</linearGradient>
<linearGradient id="paint1_linear_381_53" x1="8.03009" y1="0.736245" x2="2.04446" y2="15.7625" gradientUnits="userSpaceOnUse">
<stop offset="0.0001" stop-color="#4236F5"/>
<stop offset="1" stop-color="#564CEA"/>
</linearGradient>
</defs>
</svg>
