<svg width="38" height="37" viewBox="0 0 38 37" fill="none" xmlns="http://www.w3.org/2000/svg">
<g clip-path="url(#clip0_309_97)">
<path d="M37.9218 18.4999C37.9218 28.7064 29.648 36.9804 19.4416 36.9804C9.23509 36.9804 0.961182 28.7064 0.961182 18.4999C0.961182 8.29351 9.23509 0.0195923 19.4416 0.0195923C29.6479 0.0195923 37.9218 8.29351 37.9218 18.4999Z" fill="#564CEA"/>
<path d="M33.9981 18.5001C33.9981 26.5391 27.4809 33.0568 19.4415 33.0568C11.4022 33.0568 4.88452 26.5391 4.88452 18.5001C4.88452 10.4605 11.4022 3.94312 19.4415 3.94312C27.481 3.94312 33.9981 10.4603 33.9981 18.5001Z" fill="#564CEA"/>
<path d="M18.3613 23.4368L19.5617 18.917L22.4035 17.8787L23.1104 15.2224L23.0863 15.1565L20.2889 16.1785L22.3044 8.58911H16.5883L13.9524 18.4934L11.7516 19.2974L11.0244 22.0359L13.2235 21.2326L11.67 27.0696H26.883L27.8583 23.4368H18.3613Z" fill="white"/>
</g>
<defs>
<clipPath id="clip0_309_97">
<rect width="36.9608" height="36.9608" fill="white" transform="translate(0.960938 0.0195923)"/>
</clipPath>
</defs>
</svg>
