<svg width="44" height="44" viewBox="0 0 44 44" fill="none" xmlns="http://www.w3.org/2000/svg">
<path fill-rule="evenodd" clip-rule="evenodd" d="M16.3113 0.000530636H29.3313V0C29.7658 2.56734e-05 30.1893 0.1447 30.5422 0.413646C30.8951 0.682591 31.1596 1.06225 31.2984 1.49916L37.6384 21.4354H23.1281L16.3113 0.000530636ZM24.4063 25.4545L29.8273 42.5006C29.9662 42.9374 30.2307 43.3169 30.5835 43.5857C30.9363 43.8545 31.3597 43.9992 31.794 43.9993H41.9268C42.2558 43.9993 42.5802 43.9162 42.873 43.7568C43.1658 43.5974 43.4186 43.3663 43.6106 43.0827C43.8025 42.799 43.928 42.4709 43.9768 42.1255C44.0255 41.7801 43.9961 41.4274 43.8909 41.0965L38.9166 25.4545H24.4063Z" fill="url(#paint0_linear_204_5)"/>
<path d="M10.4114 28.5068H31.058C31.25 28.5066 31.4375 28.5677 31.5963 28.6823C31.755 28.7968 31.8776 28.9594 31.948 29.1489C32.0184 29.3384 32.0335 29.546 31.9911 29.7447C31.9487 29.9434 31.851 30.124 31.7106 30.2628L18.4435 43.4045C18.0573 43.7869 17.5487 43.9995 17.0204 43.9993H5.32952L10.4114 28.5068Z" fill="#352CA9"/>
<path fill-rule="evenodd" clip-rule="evenodd" d="M13.457 0.413532C13.1046 0.682004 12.8405 1.06104 12.7019 1.49723L6.36125 21.4354H20.8719L27.2125 1.49723C27.3512 1.06108 27.6154 0.682093 27.9677 0.413631C28.3201 0.145169 28.7429 0.000758682 29.1766 0.000732437H14.666C14.2322 0.000678954 13.8094 0.145059 13.457 0.413532ZM19.5938 25.4545H5.08313L0.108892 41.0962C0.00363378 41.4271 -0.0258756 41.7799 0.0228062 42.1253C0.071488 42.4707 0.196961 42.7989 0.388848 43.0826C0.580734 43.3664 0.833522 43.5976 1.1263 43.7571C1.41908 43.9166 1.74343 43.9999 2.07254 44H16.5837C16.2545 44 15.9301 43.9168 15.6373 43.7573C15.3444 43.5978 15.0916 43.3666 14.8996 43.0829C14.7077 42.7991 14.5822 42.4709 14.5334 42.1254C14.4847 41.7799 14.5142 41.4271 14.6195 41.0962L19.5938 25.4545Z" fill="url(#paint1_linear_204_5)"/>
<defs>
<linearGradient id="paint0_linear_204_5" x1="21.3122" y1="-1.37499" x2="38.6776" y2="52.1552" gradientUnits="userSpaceOnUse">
<stop offset="0.0001" stop-color="#2C23B9"/>
<stop offset="0.995826" stop-color="#3F37C2"/>
</linearGradient>
<linearGradient id="paint1_linear_204_5" x1="22.0826" y1="2.02472" x2="5.6222" y2="43.3466" gradientUnits="userSpaceOnUse">
<stop offset="0.0001" stop-color="#4236F5"/>
<stop offset="1" stop-color="#564CEA"/>
</linearGradient>
</defs>
</svg>
